<svg width="169" height="32" viewBox="0 0 169 32" fill="none" xmlns="http://www.w3.org/2000/svg">
<path d="M74 4H169L163.5 32H80.5L74 4Z" fill="#393B44"/>
<path d="M6.744 24.336C5.336 24.336 4.128 24 3.12 23.328C2.128 22.656 1.52 21.544 1.296 19.992L2.712 19.728C2.84 20.576 3.096 21.248 3.48 21.744C3.88 22.224 4.36 22.568 4.92 22.776C5.496 22.984 6.104 23.088 6.744 23.088C7.704 23.088 8.472 22.896 9.048 22.512C9.64 22.112 9.936 21.568 9.936 20.88C9.936 20.176 9.656 19.688 9.096 19.416C8.552 19.144 7.824 18.928 6.912 18.768L5.808 18.576C5.072 18.448 4.408 18.256 3.816 18C3.224 17.728 2.752 17.368 2.4 16.92C2.064 16.472 1.896 15.912 1.896 15.24C1.896 14.232 2.288 13.44 3.072 12.864C3.872 12.288 4.928 12 6.24 12C7.568 12 8.632 12.304 9.432 12.912C10.248 13.504 10.76 14.368 10.968 15.504L9.624 15.792C9.464 14.864 9.08 14.208 8.472 13.824C7.88 13.44 7.136 13.248 6.24 13.248C5.36 13.248 4.656 13.416 4.128 13.752C3.6 14.088 3.336 14.584 3.336 15.24C3.336 15.88 3.576 16.352 4.056 16.656C4.536 16.944 5.192 17.16 6.024 17.304L7.128 17.496C7.928 17.624 8.648 17.816 9.288 18.072C9.928 18.312 10.432 18.656 10.8 19.104C11.184 19.552 11.376 20.144 11.376 20.88C11.376 21.984 10.96 22.84 10.128 23.448C9.296 24.04 8.168 24.336 6.744 24.336ZM17.5378 24L13.1698 12.336H14.7058L18.5458 22.896H18.8338L22.6738 12.336H24.2098L19.8418 24H17.5378ZM32.0025 24.336C30.8185 24.336 29.7785 24.088 28.8825 23.592C28.0025 23.08 27.3145 22.376 26.8185 21.48C26.3385 20.568 26.0985 19.512 26.0985 18.312V18.024C26.0985 16.824 26.3385 15.776 26.8185 14.88C27.3145 13.968 28.0025 13.264 28.8825 12.768C29.7785 12.256 30.8185 12 32.0025 12C33.1865 12 34.2185 12.256 35.0985 12.768C35.9945 13.264 36.6825 13.968 37.1625 14.88C37.6585 15.776 37.9065 16.824 37.9065 18.024V18.312C37.9065 19.512 37.6585 20.568 37.1625 21.48C36.6825 22.376 35.9945 23.08 35.0985 23.592C34.2185 24.088 33.1865 24.336 32.0025 24.336ZM32.0025 23.04C33.3785 23.04 34.4665 22.608 35.2665 21.744C36.0665 20.864 36.4665 19.704 36.4665 18.264V18.072C36.4665 16.632 36.0665 15.48 35.2665 14.616C34.4665 13.736 33.3785 13.296 32.0025 13.296C30.6425 13.296 29.5545 13.736 28.7385 14.616C27.9385 15.48 27.5385 16.632 27.5385 18.072V18.264C27.5385 19.704 27.9385 20.864 28.7385 21.744C29.5545 22.608 30.6425 23.04 32.0025 23.04ZM43.0213 28.8V27.504H49.8373C50.3173 27.504 50.5573 27.264 50.5573 26.784V21.984H50.2693C50.0773 22.368 49.8053 22.736 49.4533 23.088C49.1173 23.424 48.6693 23.704 48.1093 23.928C47.5653 24.136 46.8773 24.24 46.0453 24.24C45.2133 24.24 44.4373 24.064 43.7173 23.712C43.0133 23.36 42.4453 22.832 42.0133 22.128C41.5973 21.424 41.3893 20.536 41.3893 19.464V12.336H42.8293V19.368C42.8293 20.632 43.1493 21.544 43.7893 22.104C44.4293 22.664 45.2853 22.944 46.3573 22.944C47.5573 22.944 48.5573 22.552 49.3573 21.768C50.1573 20.984 50.5573 19.792 50.5573 18.192V12.336H51.9973V26.976C51.9973 27.552 51.8373 28 51.5173 28.32C51.2133 28.64 50.7493 28.8 50.1253 28.8H43.0213ZM59.8052 24.336C58.9892 24.336 58.2452 24.2 57.5732 23.928C56.9172 23.64 56.3972 23.224 56.0132 22.68C55.6292 22.136 55.4372 21.48 55.4372 20.712C55.4372 19.928 55.6292 19.28 56.0132 18.768C56.3972 18.256 56.9172 17.872 57.5732 17.616C58.2292 17.36 58.9572 17.232 59.7572 17.232H64.0292V16.296C64.0292 15.352 63.7572 14.616 63.2132 14.088C62.6692 13.56 61.8772 13.296 60.8372 13.296C59.8132 13.296 58.9972 13.552 58.3892 14.064C57.7972 14.56 57.3972 15.232 57.1892 16.08L55.7972 15.672C55.9892 14.984 56.2932 14.368 56.7092 13.824C57.1252 13.264 57.6772 12.824 58.3652 12.504C59.0532 12.168 59.8772 12 60.8372 12C62.3092 12 63.4452 12.384 64.2452 13.152C65.0612 13.92 65.4692 14.992 65.4692 16.368V22.032C65.4692 22.512 65.6932 22.752 66.1412 22.752H67.2692V24H65.7332C65.2372 24 64.8452 23.856 64.5572 23.568C64.2692 23.264 64.1252 22.856 64.1252 22.344V22.176H63.8852C63.6772 22.528 63.4052 22.872 63.0692 23.208C62.7492 23.544 62.3252 23.816 61.7972 24.024C61.2692 24.232 60.6052 24.336 59.8052 24.336ZM59.9012 23.04C61.1332 23.04 62.1252 22.672 62.8772 21.936C63.6452 21.184 64.0292 20.128 64.0292 18.768V18.48H59.7812C58.9492 18.48 58.2532 18.664 57.6932 19.032C57.1492 19.384 56.8772 19.936 56.8772 20.688C56.8772 21.44 57.1572 22.024 57.7172 22.44C58.2932 22.84 59.0212 23.04 59.9012 23.04Z" fill="#393B44"/>
<path d="M90.9975 24L87.0135 12.168H89.6295L92.7735 22.176H93.1575L96.3015 12.168H98.9175L94.9335 24H90.9975ZM104.66 24.336C103.812 24.336 103.052 24.192 102.38 23.904C101.724 23.616 101.196 23.192 100.796 22.632C100.412 22.072 100.22 21.392 100.22 20.592C100.22 19.776 100.412 19.104 100.796 18.576C101.196 18.032 101.732 17.624 102.404 17.352C103.092 17.08 103.868 16.944 104.732 16.944H108.332V16.176C108.332 15.488 108.124 14.936 107.708 14.52C107.292 14.104 106.652 13.896 105.788 13.896C104.94 13.896 104.292 14.096 103.844 14.496C103.396 14.896 103.1 15.416 102.956 16.056L100.652 15.312C100.844 14.672 101.148 14.096 101.564 13.584C101.996 13.056 102.564 12.632 103.268 12.312C103.972 11.992 104.82 11.832 105.812 11.832C107.348 11.832 108.556 12.224 109.436 13.008C110.316 13.792 110.756 14.904 110.756 16.344V21.216C110.756 21.696 110.98 21.936 111.428 21.936H112.436V24H110.588C110.028 24 109.572 23.856 109.22 23.568C108.868 23.28 108.692 22.888 108.692 22.392V22.32H108.332C108.204 22.56 108.012 22.84 107.756 23.16C107.5 23.48 107.124 23.76 106.628 24C106.132 24.224 105.476 24.336 104.66 24.336ZM105.02 22.296C106.012 22.296 106.812 22.016 107.42 21.456C108.028 20.88 108.332 20.096 108.332 19.104V18.864H104.876C104.22 18.864 103.692 19.008 103.292 19.296C102.892 19.568 102.692 19.976 102.692 20.52C102.692 21.064 102.9 21.496 103.316 21.816C103.732 22.136 104.3 22.296 105.02 22.296ZM114.84 24V12.168H117.264V13.944H117.648C117.872 13.464 118.272 13.016 118.848 12.6C119.424 12.184 120.28 11.976 121.416 11.976C122.312 11.976 123.104 12.176 123.792 12.576C124.496 12.976 125.048 13.544 125.448 14.28C125.848 15 126.048 15.872 126.048 16.896V24H123.576V17.088C123.576 16.064 123.32 15.312 122.808 14.832C122.296 14.336 121.592 14.088 120.696 14.088C119.672 14.088 118.848 14.424 118.224 15.096C117.616 15.768 117.312 16.744 117.312 18.024V24H114.84ZM129.605 24V12.168H132.029V13.944H132.413C132.637 13.464 133.037 13.016 133.613 12.6C134.189 12.184 135.045 11.976 136.181 11.976C137.077 11.976 137.869 12.176 138.557 12.576C139.261 12.976 139.813 13.544 140.213 14.28C140.613 15 140.813 15.872 140.813 16.896V24H138.341V17.088C138.341 16.064 138.085 15.312 137.573 14.832C137.061 14.336 136.357 14.088 135.461 14.088C134.437 14.088 133.613 14.424 132.989 15.096C132.381 15.768 132.077 16.744 132.077 18.024V24H129.605ZM148.043 24.336C147.195 24.336 146.435 24.192 145.763 23.904C145.107 23.616 144.579 23.192 144.179 22.632C143.795 22.072 143.603 21.392 143.603 20.592C143.603 19.776 143.795 19.104 144.179 18.576C144.579 18.032 145.115 17.624 145.787 17.352C146.475 17.08 147.251 16.944 148.115 16.944H151.715V16.176C151.715 15.488 151.507 14.936 151.091 14.52C150.675 14.104 150.035 13.896 149.171 13.896C148.323 13.896 147.675 14.096 147.227 14.496C146.779 14.896 146.483 15.416 146.339 16.056L144.035 15.312C144.227 14.672 144.531 14.096 144.947 13.584C145.379 13.056 145.947 12.632 146.651 12.312C147.355 11.992 148.203 11.832 149.195 11.832C150.731 11.832 151.939 12.224 152.819 13.008C153.699 13.792 154.139 14.904 154.139 16.344V21.216C154.139 21.696 154.363 21.936 154.811 21.936H155.819V24H153.971C153.411 24 152.955 23.856 152.603 23.568C152.251 23.28 152.075 22.888 152.075 22.392V22.32H151.715C151.587 22.56 151.395 22.84 151.139 23.16C150.883 23.48 150.507 23.76 150.011 24C149.515 24.224 148.859 24.336 148.043 24.336ZM148.403 22.296C149.395 22.296 150.195 22.016 150.803 21.456C151.411 20.88 151.715 20.096 151.715 19.104V18.864H148.259C147.603 18.864 147.075 19.008 146.675 19.296C146.275 19.568 146.075 19.976 146.075 20.52C146.075 21.064 146.283 21.496 146.699 21.816C147.115 22.136 147.683 22.296 148.403 22.296Z" fill="white"/>
</svg>
